<?xml version="1.0" encoding="UTF-8" standalone="yes"?>
<!DOCTYPE svg PUBLIC "-//W3C//DTD SVG 1.1//EN" "http://www.w3.org/Graphics/SVG/1.1/DTD/svg11.dtd">

<svg width="450" height="450" viewBox="0 0 450 450" xmlns="http://www.w3.org/2000/svg" xmlns:xlink="http://www.w3.org/1999/xlink" version="1.1" baseProfile="full">
    <g transform="scale(1.000000,-1.000000) translate(0,-450)">
        <path d="M 1.000000 351.690897 C 40.660236 355.318303 80.320491 358.945709 119.980727 362.573152 C 129.447932 363.439034 158.400502 366.138545 158.439140 366.090617 C 158.719816 365.742694 157.155765 362.032335 156.985361 361.493583 C 154.198988 352.682573 151.412578 343.871563 148.626187 335.060553 C 147.441507 331.314432 137.720798 298.817170 136.996010 298.284187 C 136.444778 297.878842 65.176406 298.284187 57.833793 298.284187 C 55.617584 298.284187 35.276697 298.517599 35.044668 298.284187 C 35.035138 298.274602 35.044668 233.491256 35.044668 227.099285 C 35.044668 225.215385 34.834613 208.005292 35.044668 207.794904 C 35.391154 207.447903 108.348817 208.042786 108.529470 207.794904 C 108.686122 207.579946 105.006659 196.750062 101.561492 185.948641 C 100.469038 182.523530 91.620939 153.117852 90.926143 152.604336 C 89.353391 151.441934 35.815578 153.377265 35.044668 152.604336 C 34.827110 152.386197 35.030787 133.215934 35.044668 131.146413 C 35.116155 120.488611 34.419239 73.613418 32.750833 66.772657 C 31.130282 60.128080 6.244418 10.845929 1.000000 1.000000 Z" transform="scale(1.000000,1.000000) translate(223.989910,41.454032)" fill="#17666a" opacity="1.000000"></path>
        <path d="M 162.953396 361.578278 L 281.934141 372.460495 L 304.694878 374.561602 L 315.697396 375.570274 L 319.127152 375.877053 L 320.091177 375.958789 L 320.382987 375.981057 L 320.541556 375.990938 C 320.652160 375.997169 320.762949 375.999712 320.873700 375.998533 L 320.896411 375.998311 C 323.050608 375.975380 324.943079 374.562893 325.577799 372.504220 L 325.609579 372.401137 C 325.774232 371.867104 325.847341 371.309034 325.825810 370.750594 L 325.819174 370.578310 C 325.808187 370.294021 325.772757 370.011169 325.713252 369.732963 L 325.603312 369.219023 C 325.566333 369.046223 325.520137 368.875487 325.464946 368.707591 L 324.992077 367.269849 L 324.919963 367.065637 L 324.023923 364.695615 L 319.390021 366.447545 L 324.113476 364.953801 L 315.754209 338.520772 L 309.780930 318.973652 L 307.817727 312.651675 L 306.077963 307.181090 L 304.756393 303.241486 L 304.695339 303.070087 L 304.273108 301.950185 C 304.236517 301.853111 304.196865 301.757217 304.154246 301.662633 L 304.010977 301.344665 C 303.947214 301.203147 303.876833 301.064707 303.800055 300.929807 L 303.746781 300.836181 C 303.597779 300.574308 303.425200 300.326592 303.231182 300.096093 L 303.190701 300.048017 C 302.634492 299.387195 301.915178 298.883283 301.104101 298.586274 L 301.078367 298.576855 C 300.804733 298.476647 300.522766 298.400792 300.235786 298.350135 L 300.184447 298.341084 C 300.056884 298.318557 299.928472 298.301064 299.799527 298.288621 L 299.621823 298.271459 L 299.385149 298.254333 L 298.740751 298.223161 L 298.605649 298.218461 L 296.246244 298.168818 L 287.864101 298.113221 L 262.362615 298.132208 L 220.220518 298.284215 L 208.064050 298.371776 L 200.788887 298.382652 L 198.469503 298.351536 L 198.404210 303.305121 L 198.610191 298.355389 L 197.925092 298.326890 L 197.719110 303.276603 L 198.182578 298.344328 L 197.992302 298.326447 L 197.528834 303.258722 L 198.420763 298.385676 L 198.366641 298.375758 L 197.474712 303.248823 L 199.381636 298.676527 L 199.356141 298.665891 L 197.449218 303.238187 L 202.403226 303.238187 L 202.403226 232.053247 L 202.324310 221.735534 L 202.314669 215.581196 L 202.342450 213.630565 L 197.388939 213.561493 L 202.338099 213.780378 L 202.363833 213.198564 L 197.414672 212.979679 L 202.344201 213.471535 L 202.360386 213.309279 L 197.430858 212.817423 L 202.295351 213.754866 L 202.304291 213.708467 L 197.439798 212.771043 L 201.997107 214.713507 L 202.006527 214.691386 L 197.449218 212.748941 L 199.180060 217.390733 L 199.201443 217.382769 L 197.470601 212.740959 L 198.252793 217.632826 L 198.300408 217.625213 L 197.518198 212.733345 L 197.927599 217.670413 L 198.099514 217.656145 L 197.690113 212.719096 L 197.880868 217.669418 L 198.520436 217.644790 L 200.772112 217.612881 L 209.065201 217.591294 L 234.239188 217.665712 L 259.406336 217.758601 L 267.738117 217.759837 L 270.125007 217.739725 L 270.836504 217.722065 L 271.002410 217.714987 L 271.166952 217.705198 C 271.272911 217.698894 271.378648 217.689197 271.483980 217.676091 L 271.527724 217.670653 C 271.828677 217.633250 272.125557 217.568270 272.414639 217.476580 L 272.432151 217.471013 C 274.071063 216.951082 275.323174 215.618525 275.740206 213.950450 L 275.744667 213.932569 C 275.854645 213.492660 275.903716 213.039737 275.890480 212.586482 L 275.889503 212.553374 C 275.883125 212.334692 275.862258 212.116673 275.827049 211.900755 L 275.808928 211.789617 C 275.786937 211.654680 275.759359 211.520702 275.726270 211.388050 L 275.627685 210.992770 L 275.569047 210.778217 L 275.144032 209.350374 L 273.517564 204.281135 L 268.678030 189.372932 L 263.234212 171.681527 L 259.854965 161.008001 L 258.633657 157.405923 L 258.569082 157.227003 L 258.179351 156.208838 C 258.141026 156.108667 258.099439 156.009787 258.054682 155.912327 L 257.921312 155.621899 C 257.854304 155.475975 257.780236 155.333407 257.699366 155.194673 L 257.649226 155.108660 C 257.500906 154.854178 257.330188 154.613449 257.139102 154.389310 L 257.100685 154.344257 C 256.519258 153.662273 255.763741 153.150775 254.914579 152.864265 L 254.618105 152.764233 C 254.330442 152.667178 254.034466 152.596760 253.733918 152.553891 L 253.152104 152.470892 C 253.020448 152.452117 252.888092 152.438642 252.755349 152.430513 L 250.812497 152.311512 L 250.619715 152.303475 L 247.765836 152.240043 L 244.066390 152.222688 L 235.119946 152.297474 L 225.010224 152.458846 L 206.203525 152.767551 L 199.998069 152.778482 L 200.007230 157.732481 L 200.169210 152.781127 L 198.348613 152.721567 L 198.186633 157.672921 L 198.665567 152.742121 L 198.151885 152.692229 L 197.672951 157.623039 L 198.662636 152.768887 L 198.513320 152.738443 L 197.523636 157.592586 L 199.597793 153.093694 L 199.523375 153.059389 L 197.449218 157.558280 L 202.034381 155.682528 L 202.024592 155.658601 L 197.439429 157.534353 L 202.312974 156.645115 L 202.303664 156.594127 L 197.430120 157.483383 L 202.362229 157.018090 L 202.345325 156.838801 L 197.413216 157.304094 L 202.362911 157.097541 L 202.335979 156.451945 L 197.386266 156.658498 L 202.339813 156.591067 L 202.309139 154.336994 L 202.316476 147.528589 L 202.403079 136.138027 L 202.393678 130.546386 L 202.309324 122.455943 L 202.148118 112.769788 L 201.907555 102.367564 L 201.584812 92.134685 L 201.176831 82.952156 L 200.937687 78.994671 L 200.674744 75.632282 L 200.660753 75.482980 L 200.381809 72.923156 C 200.370399 72.818567 200.355688 72.714364 200.337641 72.610714 L 200.036116 70.877466 C 200.004041 70.693099 199.961532 70.510699 199.908830 70.331142 L 199.690036 69.585874 C 199.664505 69.498861 199.636578 69.412572 199.606291 69.327093 L 199.259086 68.346971 L 199.185055 68.151207 L 198.136548 65.546565 L 198.081338 65.414910 L 196.613383 62.051465 L 194.755679 57.975740 L 190.257561 48.472275 L 185.092502 37.870858 L 179.765665 27.137304 L 174.775342 17.222958 L 170.620631 9.082413 L 167.797999 3.664839 C 165.923869 0.067980 160.757851 0.124207 158.962453 3.761007 L 126.849466 68.809319 C 126.518926 69.478860 126.344005 70.214460 126.337802 70.961120 L 124.406057 303.196987 L 129.359900 298.284178 L 27.408644 298.284178 C 25.248227 298.284178 23.336939 299.684204 22.685336 301.744019 L 1.235204 369.550983 C 0.167200 372.927096 2.883431 376.301108 6.409729 375.978587 L 163.855832 361.578278 L 162.953396 361.578278 Z M 163.855832 351.711442 C 163.555653 351.683975 163.253575 351.683975 162.953396 351.711442 L 5.507290 366.111751 L 10.681816 372.539356 L 32.131948 304.732355 L 27.408644 308.192195 L 129.359900 308.192195 C 132.079837 308.192195 134.291106 305.999250 134.313734 303.279387 L 136.245469 71.043534 L 135.733806 73.195334 L 167.846794 8.147021 L 159.011230 8.243189 L 161.814728 13.623662 L 165.937769 21.702394 L 170.903059 31.566990 L 176.201433 42.243099 L 181.326417 52.761793 L 185.770486 62.150654 L 187.565441 66.088405 L 189.000510 69.378169 L 193.540915 67.396537 L 188.945300 69.246513 L 189.993789 71.851155 L 194.589422 70.001183 L 189.919758 71.655395 L 190.266963 72.635517 L 194.936627 70.981305 L 190.183217 72.376740 L 190.401992 73.122013 L 195.155420 71.726578 L 190.274723 72.575689 L 190.576267 74.308937 L 195.456945 73.459826 L 190.532099 73.996495 L 190.811042 76.556314 L 195.735906 76.019649 L 190.797069 76.407017 L 191.053910 79.681669 L 191.282787 83.471893 L 191.684150 92.511052 L 192.003316 102.638397 L 192.242110 112.966866 L 192.402265 122.590188 L 192.485937 130.606674 L 192.495209 136.108938 L 192.408606 147.486016 L 192.401583 154.399485 L 192.432718 156.725930 L 192.436571 156.865033 L 192.463521 157.510647 L 192.481107 157.769386 L 192.498011 157.948675 C 192.511431 158.090765 192.530971 158.232209 192.556576 158.372621 L 192.565885 158.423609 C 192.627547 158.761541 192.724196 159.092155 192.854267 159.410105 L 192.864055 159.434032 C 193.338878 160.594710 194.236208 161.532116 195.375061 162.057172 L 195.449479 162.091477 C 195.796075 162.251282 196.159981 162.370476 196.533951 162.446737 L 196.683267 162.477172 C 196.852067 162.511588 197.022563 162.537175 197.194018 162.553839 L 197.707699 162.603721 C 197.813105 162.613971 197.918806 162.620828 198.024654 162.624275 L 199.845251 162.683836 L 200.016374 162.686490 L 206.293980 162.674877 L 225.170673 162.365554 L 235.240707 162.204681 L 244.085820 162.130465 L 247.633572 162.146779 L 250.399576 162.209031 L 250.509645 157.256257 L 250.206793 162.200994 L 252.149644 162.319985 L 252.452497 157.375249 L 251.752889 162.279615 L 252.334703 162.362605 L 253.034311 157.458239 L 251.450517 162.152254 L 251.746972 162.252296 L 253.330785 157.558280 L 249.560866 160.772303 L 249.599282 160.817356 L 253.369201 157.603333 L 249.089158 160.098025 L 249.139298 160.184038 L 253.419323 157.689364 L 248.917353 159.756811 L 249.050723 160.047239 L 253.552712 157.979774 L 248.926054 159.750728 L 249.315786 160.768912 L 253.942443 158.997957 L 249.251211 160.589991 L 250.440813 164.095382 L 253.776427 174.634027 L 259.231213 192.359682 L 264.088794 207.325252 L 265.679076 212.278191 L 266.072790 213.604831 L 270.820909 212.191515 L 266.014133 213.390278 L 266.112699 213.785558 L 270.919494 212.586814 L 266.030041 213.383992 L 266.048162 213.495149 L 270.937615 212.697952 L 265.985708 212.842530 L 265.986685 212.875637 L 270.938573 212.731060 L 266.132479 211.529531 L 266.128018 211.547412 L 270.934112 212.748941 L 269.436073 208.026850 L 269.418561 208.032417 L 270.916600 212.754489 L 270.305458 207.838326 L 270.261732 207.843764 L 270.872856 212.759927 L 270.578760 207.814656 L 270.414218 207.824445 L 270.708314 212.769716 L 270.580124 207.817366 L 269.954695 207.833551 L 267.696696 207.852004 L 259.425342 207.850621 L 234.272111 207.757751 L 209.066712 207.683314 L 200.685749 207.705416 L 198.256424 207.740976 L 197.499358 207.768756 L 197.280713 207.782028 L 197.108797 207.796296 C 196.983999 207.806638 196.859643 207.821717 196.735988 207.841478 L 196.688391 207.849091 C 196.364690 207.900854 196.046925 207.984618 195.739759 208.099148 L 195.718376 208.107130 C 194.446098 208.581529 193.424320 209.557370 192.891909 210.806476 L 192.882489 210.828579 C 192.744750 211.151745 192.641759 211.488663 192.575286 211.833619 L 192.566346 211.879999 C 192.537939 212.027471 192.516242 212.176141 192.501329 212.325585 L 192.485126 212.487823 C 192.476075 212.578610 192.469531 212.669637 192.465494 212.760794 L 192.439760 213.342608 L 192.435409 213.492421 L 192.407132 215.519976 L 192.416441 221.781324 L 192.495357 232.091221 L 192.495209 303.238187 C 192.495209 305.237520 193.697014 307.040881 195.542294 307.810464 L 195.567788 307.821100 C 195.894402 307.957328 196.234657 308.058143 196.582764 308.121870 L 196.636887 308.131769 C 196.778773 308.157742 196.921729 308.177503 197.065348 308.190997 L 197.255624 308.208878 L 197.513110 308.226317 L 198.198228 308.254834 L 198.338916 308.258687 L 200.731060 308.290227 L 208.107204 308.279646 L 220.274087 308.192066 L 262.384202 308.040189 L 287.835270 308.021128 L 296.109464 308.075619 L 298.397178 308.124284 L 298.501404 303.171382 L 298.262076 308.119602 L 298.906455 308.150774 L 299.145802 303.202554 L 298.669799 308.133630 L 298.847503 308.150793 L 299.323505 303.219697 L 298.462582 308.098329 L 298.513921 308.107380 L 299.374863 303.228767 L 297.671340 307.880661 L 297.697074 307.890099 L 299.400596 303.238187 L 295.610474 306.428356 L 295.650955 306.476432 L 299.441059 303.286263 L 295.135337 305.736362 L 295.188612 305.829989 L 299.494333 303.379889 L 294.977708 305.415132 L 295.120977 305.733100 L 299.637621 303.697857 L 295.002133 305.445548 L 295.424346 306.565450 L 300.059852 304.817759 L 295.363311 306.394051 L 296.660438 310.258831 L 298.365601 315.622388 L 300.312102 321.890685 L 306.293032 341.462359 L 314.666567 367.941289 C 314.694070 368.028150 314.723933 368.114274 314.756119 368.199476 L 315.652159 370.569498 L 320.286061 368.817568 L 315.580045 370.365286 L 316.052877 371.803028 L 320.758893 370.255309 L 315.914512 371.291632 L 316.024452 371.805535 L 320.868834 370.769249 L 315.918530 370.960189 L 315.925166 371.132436 L 320.875507 370.941533 L 316.141397 369.481892 L 316.109617 369.584938 L 320.843726 371.044579 L 320.791005 366.090847 L 320.768294 366.091068 L 320.821016 371.044801 L 321.100438 366.098700 L 321.036288 366.095050 L 320.883323 366.082589 L 319.986730 366.006420 L 316.591002 365.702664 L 305.602532 364.695246 L 282.840744 362.594065 L 163.855832 351.711442 Z" transform="scale(1.000000,1.000000) translate(61.585254,36.500007)" fill="#17666a" opacity="1.000000"></path>
    </g>
</svg>